<?xml version="1.0" encoding="UTF-8"?>
<svg width="21px" height="21px" viewBox="0 0 21 21" version="1.1" xmlns="http://www.w3.org/2000/svg" xmlns:xlink="http://www.w3.org/1999/xlink">
    <!-- Generator: Sketch 44.1 (41455) - http://www.bohemiancoding.com/sketch -->
    <title>instagram</title>
    <desc>Created with Sketch.</desc>
    <defs></defs>
    <g id="Page-1" stroke="none" stroke-width="1" fill="none" fill-rule="evenodd">
        <g id="instagram" fill-rule="nonzero" fill="#080808">
            <path d="M20.9475,14.8575 C20.8425,16.5375 20.475,18.0075 19.2675,19.2675 C18.06,20.475 16.5375,20.895 14.8575,20.9475 C13.3875,21.0525 11.97,21 10.5,21 C9.03,21 7.6125,21 6.1425,20.9475 C4.4625,20.8425 2.9925,20.475 1.7325,19.2675 C0.525,18.06 0.105,16.5375 0.0525,14.8575 C0,13.3875 0,11.97 0,10.5 C0,9.03 0,7.6125 0.0525,6.1425 C0.1575,4.4625 0.525,2.9925 1.7325,1.7325 C2.94,0.525 4.4625,0.105 6.1425,0.0525 C7.6125,0 9.03,0 10.5,0 C11.97,0 13.3875,0 14.8575,0.0525 C16.5375,0.1575 18.0075,0.525 19.2675,1.7325 C20.475,2.94 20.895,4.4625 20.9475,6.1425 C21,7.6125 21,9.0825 21,10.5 C21,11.9175 21,13.3875 20.9475,14.8575 Z M4.305,2.31 C3.8325,2.52 3.465,2.73 3.0975,3.0975 C2.73,3.465 2.52,3.8325 2.31,4.305 C1.785,5.67 1.89,8.9775 1.89,10.5 C1.89,12.0225 1.785,15.33 2.31,16.695 C2.52,17.1675 2.73,17.535 3.0975,17.9025 C3.465,18.27 3.8325,18.48 4.305,18.69 C5.67,19.215 8.9775,19.11 10.5,19.11 C12.0225,19.11 15.33,19.215 16.695,18.69 C17.1675,18.48 17.535,18.27 17.9025,17.9025 C18.27,17.535 18.48,17.1675 18.69,16.695 C19.215,15.33 19.11,12.0225 19.11,10.5 C19.11,8.9775 19.215,5.67 18.69,4.305 C18.48,3.8325 18.27,3.465 17.9025,3.0975 C17.535,2.73 17.1675,2.52 16.695,2.31 C15.33,1.785 12.0225,1.89 10.5,1.89 C8.9775,1.89 5.67,1.785 4.305,2.31 Z M10.5,15.9075 C7.5075,15.9075 5.0925,13.4925 5.0925,10.5 C5.0925,7.5075 7.5075,5.145 10.5,5.145 C13.4925,5.145 15.9075,7.56 15.9075,10.5 C15.9075,13.44 13.4925,15.9075 10.5,15.9075 Z M10.5,7.035 C8.5575,7.035 6.9825,8.61 6.9825,10.5525 C6.9825,12.495 8.5575,14.07 10.5,14.07 C12.4425,14.07 14.0175,12.495 14.0175,10.5525 C14.0175,8.61 12.4425,7.035 10.5,7.035 Z M16.1175,6.195 C15.435,6.195 14.8575,5.6175 14.8575,4.935 C14.8575,4.2525 15.435,3.675 16.1175,3.675 C16.8,3.675 17.3775,4.2525 17.3775,4.935 C17.3775,5.6175 16.8,6.195 16.1175,6.195 Z" id="Shape"></path>
        </g>
    </g>
</svg>
