<?xml version="1.0" encoding="UTF-8"?>
<svg width="19px" height="19px" viewBox="0 0 19 19" version="1.1" xmlns="http://www.w3.org/2000/svg" xmlns:xlink="http://www.w3.org/1999/xlink">
    <!-- Generator: Sketch 44.1 (41455) - http://www.bohemiancoding.com/sketch -->
    <title>linkedin</title>
    <desc>Created with Sketch.</desc>
    <defs></defs>
    <g id="Page-1" stroke="none" stroke-width="1" fill="none" fill-rule="evenodd">
        <g id="linkedin" fill-rule="nonzero" fill="#080808">
            <path d="M0.914814815,5.98148148 L4.64444444,5.98148148 L4.64444444,18.0851852 L0.914814815,18.0851852 L0.914814815,5.98148148 Z M2.81481481,0 C4.01111111,0 4.9962963,0.985185185 4.9962963,2.18148148 C4.9962963,3.37777778 4.01111111,4.36296296 2.81481481,4.36296296 C1.61851852,4.36296296 0.633333333,3.37777778 0.633333333,2.18148148 C0.633333333,0.914814815 1.61851852,0 2.81481481,0 L2.81481481,0 Z" id="Shape"></path>
            <path d="M7.03703704,5.98148148 L10.6259259,5.98148148 L10.6259259,7.6 L10.6962963,7.6 C11.1888889,6.61481481 12.4555556,5.62962963 14.2851852,5.62962963 C18.0851852,5.62962963 18.7888889,8.16296296 18.7888889,11.4 L18.7888889,18.0148148 L15.0592593,18.0148148 L15.0592593,12.1037037 C15.0592593,10.6962963 15.0592593,8.86666667 13.0888889,8.86666667 C11.1185185,8.86666667 10.837037,10.4148148 10.837037,11.962963 L10.837037,17.9444444 L7.03703704,17.9444444 L7.03703704,5.98148148 Z" id="Shape"></path>
        </g>
    </g>
</svg>
