<svg width="450" height="300" viewBox="0 0 450 300" fill="none" xmlns="http://www.w3.org/2000/svg">
<path fill-rule="evenodd" clip-rule="evenodd" d="M43.2945 119.979C45.0118 114.337 49.5497 109.983 57.4604 109.983C64.2678 109.983 69.909 114.337 70.523 119.979H43.2945ZM57.4604 100.294C42.7424 100.294 31.398 111.087 31.398 126.787C31.398 142.424 43.2945 153.279 57.4604 153.279C68.2536 153.279 76.1652 147.821 80.7032 140.278L71.197 135.984C69.4807 140.278 64.8199 143.529 58.0126 143.529C48.3846 143.529 42.7424 137.028 42.7424 129.485H81.2543L82.3586 126.235C82.3586 110.535 71.0742 100.294 57.4604 100.294Z" fill="black"/>
<path fill-rule="evenodd" clip-rule="evenodd" d="M448.896 124.088H429.21V133.164H438.532C437.981 139.849 431.909 143.589 425.164 143.589C413.94 143.589 409.096 135.372 409.096 127.032C409.096 118.63 414.001 110.045 425.346 110.045C431.724 110.045 436.508 113.356 438.899 117.894L448.16 113.295C443.56 104.893 435.711 100.294 425.346 100.232C409.403 100.294 397.996 111.7 397.996 127.032C397.996 143.038 410.445 153.279 424.305 153.279C438.225 153.279 450 143.038 450 127.338L448.896 124.088Z" fill="black"/>
<path fill-rule="evenodd" clip-rule="evenodd" d="M11.8965 107.285L11.2834 106.794L10.1791 101.337H0V152.174H11.2834V122.554C11.528 116.3 15.8213 111.087 24.5288 111.087H30.5394V101.337C28.2699 100.294 27.1657 100.294 24.8972 100.294C20.2365 100.294 15.8823 102.318 11.8965 107.285Z" fill="black"/>
<path fill-rule="evenodd" clip-rule="evenodd" d="M229.116 136.379L215.678 101.337H203.965L223.573 150.593L214.513 173.822H225.184L253.453 101.337H242.783L229.116 136.379Z" fill="black"/>
<path fill-rule="evenodd" clip-rule="evenodd" d="M189.247 105.69V70H200.531V152.175H190.352L189.247 147.821L188.695 147.329L188.082 147.821C184.71 151.072 179.067 153.279 173.364 153.279C158.646 153.279 146.198 142.424 146.198 126.786C146.198 111.087 158.646 100.294 173.364 100.294C178.945 100.294 184.71 102.44 188.082 105.69L188.695 106.242L189.247 105.69ZM173.977 143.528C183.605 143.528 190.352 135.984 190.352 126.786C190.352 117.588 183.605 109.983 173.977 109.983C163.184 109.983 157.419 117.588 157.419 126.786C157.419 135.984 163.184 143.528 173.977 143.528Z" fill="black"/>
<path fill-rule="evenodd" clip-rule="evenodd" d="M113.573 143.528C102.841 143.528 97.0144 135.984 97.0144 126.787C97.0144 117.588 102.841 109.983 113.573 109.983C123.201 109.983 130.008 117.588 130.008 126.787C130.008 135.984 123.201 143.528 113.573 143.528ZM128.842 105.69L128.291 106.243L127.738 105.69C124.304 102.44 118.663 100.294 113.02 100.294C98.3033 100.294 85.8538 111.087 85.8538 126.787C85.8538 142.424 98.3033 153.279 113.02 153.279C118.663 153.279 124.304 151.072 127.738 147.821L128.291 147.329L128.842 147.821L130.008 152.175H140.187V101.336H130.008L128.842 105.69Z" fill="black"/>
<path fill-rule="evenodd" clip-rule="evenodd" d="M314.779 100.294C310.301 100.294 304.599 102.441 301.778 105.691L298.958 108.941C296.013 103.606 290.126 100.294 281.969 100.294C277.431 100.294 271.79 102.441 269.522 105.691L268.97 106.243L268.356 105.691L267.252 101.336H257.072V152.175H268.356V121.451C268.601 115.196 274.182 109.983 280.805 109.983C286.508 109.983 289.881 113.234 289.881 119.734V152.175H301.226V121.451C301.471 115.196 306.99 109.983 313.675 109.983C319.317 109.983 322.751 113.234 322.751 119.734V152.175H334.035V118.63C334.035 107.837 327.289 100.294 314.779 100.294Z" fill="black"/>
<path fill-rule="evenodd" clip-rule="evenodd" d="M366.66 143.528C355.928 143.528 350.163 135.984 350.163 126.787C350.163 117.588 355.928 109.983 366.66 109.983C376.288 109.983 383.095 117.588 383.095 126.787C383.095 135.984 376.288 143.528 366.66 143.528ZM381.99 105.69L381.439 106.243L380.826 105.69C377.452 102.44 371.811 100.294 366.108 100.294C351.39 100.294 338.94 111.087 338.94 126.787C338.94 142.424 351.39 153.279 366.108 153.279C371.811 153.279 377.452 151.072 380.826 147.821L381.439 147.329L381.99 147.821L383.095 152.175H393.274V101.336H383.095L381.99 105.69Z" fill="black"/>
<path d="M31.4993 215.436C34.9913 215.436 37.7273 213.132 37.7273 208.308V208.02C37.7273 203.196 35.4233 200.928 31.7513 200.928C28.0073 200.928 25.7753 203.556 25.7753 208.128V208.416C25.7753 213.168 28.3313 215.436 31.4993 215.436ZM31.1753 217.92C26.2433 217.92 22.6793 214.428 22.6793 208.56V208.272C22.6793 202.512 26.2793 198.444 31.4633 198.444C34.5953 198.444 36.5393 199.956 37.6193 201.792V189.768H40.6073V217.596H37.6193V214.356C36.5393 216.192 33.9113 217.92 31.1753 217.92ZM53.6376 217.92C48.3096 217.92 44.5296 214.176 44.5296 208.38V208.092C44.5296 202.404 48.1656 198.444 53.3496 198.444C57.7056 198.444 61.8096 201.072 61.8096 207.804V208.776H47.6256C47.7696 213.06 49.8216 215.436 53.6736 215.436C56.5896 215.436 58.2816 214.356 58.6776 212.16H61.6656C61.0176 215.94 57.8856 217.92 53.6376 217.92ZM47.7336 206.364H58.7496C58.4616 202.476 56.4456 200.928 53.3496 200.928C50.2896 200.928 48.2376 203.016 47.7336 206.364ZM71.6823 217.92C67.1823 217.92 64.4823 215.652 64.3023 211.8H67.2183C67.4343 214.032 68.6223 215.436 71.6463 215.436C74.4903 215.436 75.7503 214.464 75.7503 212.448C75.7503 210.468 74.2743 209.82 71.3583 209.28C66.4623 208.38 64.8063 207.012 64.8063 203.736C64.8063 200.244 68.2263 198.444 71.1783 198.444C74.5623 198.444 77.4783 199.812 77.9823 203.88H75.1023C74.6703 201.828 73.5183 200.928 71.1423 200.928C68.9823 200.928 67.5783 202.008 67.5783 203.628C67.5783 205.32 68.5143 206.004 71.9703 206.616C75.8583 207.336 78.5943 208.2 78.5943 212.196C78.5943 215.616 76.2543 217.92 71.6823 217.92ZM83.9392 194.844C82.8592 194.844 81.9592 193.944 81.9592 192.864C81.9592 191.784 82.8592 190.884 83.9392 190.884C85.0192 190.884 85.9192 191.784 85.9192 192.864C85.9192 193.944 85.0192 194.844 83.9392 194.844ZM82.4992 217.596V198.768H85.4872V217.596H82.4992ZM98.371 214.5C101.863 214.5 104.527 212.052 104.527 207.84V207.588C104.527 203.376 102.223 200.928 98.551 200.928C94.807 200.928 92.575 203.7 92.575 207.66V207.948C92.575 212.052 95.203 214.5 98.371 214.5ZM98.407 224.472C92.827 224.472 90.379 221.844 89.875 218.676H92.935C93.367 220.836 95.167 221.952 98.371 221.952C102.079 221.952 104.419 220.188 104.419 216.156V213.42C103.339 215.256 100.783 216.984 98.047 216.984C93.115 216.984 89.479 213.24 89.479 208.056V207.804C89.479 202.692 93.079 198.444 98.263 198.444C101.395 198.444 103.339 199.956 104.419 201.792V198.768H107.407V216.336C107.371 221.808 103.663 224.472 98.407 224.472ZM112.733 217.596V198.768H115.721V201.756C116.585 199.992 118.673 198.444 121.769 198.444C125.657 198.444 128.393 200.568 128.393 206.04V217.596H125.405V205.824C125.405 202.512 124.001 201.036 120.977 201.036C118.205 201.036 115.721 202.8 115.721 206.184V217.596H112.733ZM146.116 217.596L140.32 198.768H143.56L147.952 213.924L152.524 198.768H155.116L159.4 213.924L163.828 198.768H166.888L161.02 217.596H157.708L153.784 203.484L149.392 217.596H146.116ZM177.551 217.92C172.223 217.92 168.443 214.176 168.443 208.38V208.092C168.443 202.404 172.079 198.444 177.263 198.444C181.619 198.444 185.723 201.072 185.723 207.804V208.776H171.539C171.683 213.06 173.735 215.436 177.587 215.436C180.503 215.436 182.195 214.356 182.591 212.16H185.579C184.931 215.94 181.799 217.92 177.551 217.92ZM171.647 206.364H182.663C182.375 202.476 180.359 200.928 177.263 200.928C174.203 200.928 172.151 203.016 171.647 206.364ZM198.948 217.92C195.888 217.92 193.656 216.372 192.576 214.5V217.596H189.588V189.768H192.576V201.936C193.656 200.1 196.212 198.444 198.948 198.444C203.88 198.444 207.516 202.044 207.516 207.912V208.2C207.516 213.96 204.132 217.92 198.948 217.92ZM198.66 215.436C202.404 215.436 204.42 212.916 204.42 208.344V208.056C204.42 203.304 201.792 200.928 198.624 200.928C195.132 200.928 192.468 203.232 192.468 208.056V208.344C192.468 213.168 194.988 215.436 198.66 215.436ZM217.27 217.92C212.77 217.92 210.07 215.652 209.89 211.8H212.806C213.022 214.032 214.21 215.436 217.234 215.436C220.078 215.436 221.338 214.464 221.338 212.448C221.338 210.468 219.862 209.82 216.946 209.28C212.05 208.38 210.394 207.012 210.394 203.736C210.394 200.244 213.814 198.444 216.766 198.444C220.15 198.444 223.066 199.812 223.57 203.88H220.69C220.258 201.828 219.106 200.928 216.73 200.928C214.57 200.928 213.166 202.008 213.166 203.628C213.166 205.32 214.102 206.004 217.558 206.616C221.446 207.336 224.182 208.2 224.182 212.196C224.182 215.616 221.842 217.92 217.27 217.92ZM229.527 194.844C228.447 194.844 227.547 193.944 227.547 192.864C227.547 191.784 228.447 190.884 229.527 190.884C230.607 190.884 231.507 191.784 231.507 192.864C231.507 193.944 230.607 194.844 229.527 194.844ZM228.087 217.596V198.768H231.075V217.596H228.087ZM242.195 217.848C238.775 217.848 237.119 215.832 237.119 212.88V201.288H234.419V198.768H237.119V194.484H240.107V198.768H244.499V201.288H240.107V212.592C240.107 214.428 240.935 215.328 242.447 215.328C243.383 215.328 244.103 215.184 244.751 214.932V217.452C244.139 217.668 243.419 217.848 242.195 217.848ZM256.252 217.92C250.924 217.92 247.144 214.176 247.144 208.38V208.092C247.144 202.404 250.78 198.444 255.964 198.444C260.32 198.444 264.424 201.072 264.424 207.804V208.776H250.24C250.384 213.06 252.436 215.436 256.288 215.436C259.204 215.436 260.896 214.356 261.292 212.16H264.28C263.632 215.94 260.5 217.92 256.252 217.92ZM250.348 206.364H261.364C261.076 202.476 259.06 200.928 255.964 200.928C252.904 200.928 250.852 203.016 250.348 206.364ZM274.296 217.92C269.796 217.92 267.096 215.652 266.916 211.8H269.832C270.048 214.032 271.236 215.436 274.26 215.436C277.104 215.436 278.364 214.464 278.364 212.448C278.364 210.468 276.888 209.82 273.972 209.28C269.076 208.38 267.42 207.012 267.42 203.736C267.42 200.244 270.84 198.444 273.792 198.444C277.176 198.444 280.092 199.812 280.596 203.88H277.716C277.284 201.828 276.132 200.928 273.756 200.928C271.596 200.928 270.192 202.008 270.192 203.628C270.192 205.32 271.128 206.004 274.584 206.616C278.472 207.336 281.208 208.2 281.208 212.196C281.208 215.616 278.868 217.92 274.296 217.92ZM295.36 194.844C294.28 194.844 293.38 193.944 293.38 192.864C293.38 191.784 294.28 190.884 295.36 190.884C296.44 190.884 297.34 191.784 297.34 192.864C297.34 193.944 296.44 194.844 295.36 194.844ZM293.92 217.596V198.768H296.908V217.596H293.92ZM302.304 217.596V198.768H305.292V201.756C306.156 199.992 308.244 198.444 311.34 198.444C315.228 198.444 317.964 200.568 317.964 206.04V217.596H314.976V205.824C314.976 202.512 313.572 201.036 310.548 201.036C307.776 201.036 305.292 202.8 305.292 206.184V217.596H302.304ZM337.631 217.848C334.211 217.848 332.555 215.832 332.555 212.88V201.288H329.855V198.768H332.555V194.484H335.543V198.768H339.935V201.288H335.543V212.592C335.543 214.428 336.371 215.328 337.883 215.328C338.819 215.328 339.539 215.184 340.187 214.932V217.452C339.575 217.668 338.855 217.848 337.631 217.848ZM351.688 217.92C346.36 217.92 342.58 214.176 342.58 208.38V208.092C342.58 202.404 346.216 198.444 351.4 198.444C355.756 198.444 359.86 201.072 359.86 207.804V208.776H345.676C345.82 213.06 347.872 215.436 351.724 215.436C354.64 215.436 356.332 214.356 356.728 212.16H359.716C359.068 215.94 355.936 217.92 351.688 217.92ZM345.784 206.364H356.8C356.512 202.476 354.496 200.928 351.4 200.928C348.34 200.928 346.288 203.016 345.784 206.364ZM368.905 215.544C372.073 215.544 374.485 213.924 374.485 211.008V208.668H371.893C368.113 208.668 365.341 209.604 365.341 212.376C365.341 214.32 366.277 215.544 368.905 215.544ZM368.617 217.92C365.125 217.92 362.353 216.228 362.353 212.376C362.353 208.02 366.961 206.544 371.785 206.544H374.485V205.176C374.485 202.188 373.333 200.928 370.453 200.928C367.861 200.928 366.421 202.008 366.133 204.312H363.145C363.541 200.028 366.961 198.444 370.597 198.444C374.197 198.444 377.473 199.92 377.473 205.176V217.596H374.485V215.22C373.081 216.984 371.389 217.92 368.617 217.92ZM382.622 217.596V198.768H385.61V201.648C386.474 199.884 388.526 198.444 391.226 198.444C393.638 198.444 395.762 199.452 396.734 201.972C398.03 199.524 400.838 198.444 403.178 198.444C406.562 198.444 409.514 200.46 409.514 205.932V217.596H406.526V205.716C406.526 202.404 405.122 201.036 402.53 201.036C400.082 201.036 397.562 202.692 397.562 206.076V217.596H394.574V205.716C394.574 202.404 393.17 201.036 390.578 201.036C388.13 201.036 385.61 202.692 385.61 206.076V217.596H382.622ZM420.5 217.92C416 217.92 413.3 215.652 413.12 211.8H416.036C416.252 214.032 417.44 215.436 420.464 215.436C423.308 215.436 424.568 214.464 424.568 212.448C424.568 210.468 423.092 209.82 420.176 209.28C415.28 208.38 413.624 207.012 413.624 203.736C413.624 200.244 417.044 198.444 419.996 198.444C423.38 198.444 426.296 199.812 426.8 203.88H423.92C423.488 201.828 422.336 200.928 419.96 200.928C417.8 200.928 416.396 202.008 416.396 203.628C416.396 205.32 417.332 206.004 420.788 206.616C424.676 207.336 427.412 208.2 427.412 212.196C427.412 215.616 425.072 217.92 420.5 217.92Z" fill="black"/>
</svg>
