<?xml version="1.0" encoding="UTF-8"?>
<svg width="18px" height="18px" viewBox="0 0 18 18" version="1.1" xmlns="http://www.w3.org/2000/svg" xmlns:xlink="http://www.w3.org/1999/xlink">
    <!-- Generator: Sketch 44.1 (41455) - http://www.bohemiancoding.com/sketch -->
    <title>loupe</title>
    <desc>Created with Sketch.</desc>
    <defs></defs>
    <g id="Page-1" stroke="none" stroke-width="1" fill="none" fill-rule="evenodd">
        <g id="loupe" fill-rule="nonzero" fill="#282828">
            <path d="M12.3157895,3.03157895 C9.47368421,0.189473684 4.92631579,0.189473684 2.17894737,3.03157895 C-0.663157895,5.87368421 -0.663157895,10.4210526 2.17894737,13.1684211 C4.64210526,15.6315789 8.33684211,15.9157895 11.0842105,14.2105263 L14.8736842,18 L17.1473684,15.7263158 L13.3578947,11.9368421 C15.0631579,9.18947368 14.6842105,5.49473684 12.3157895,3.03157895 Z M10.7052632,11.6526316 C8.81052632,13.5473684 5.58947368,13.5473684 3.69473684,11.6526316 C1.8,9.75789474 1.8,6.53684211 3.69473684,4.64210526 C5.58947368,2.74736842 8.81052632,2.74736842 10.7052632,4.64210526 C12.6,6.53684211 12.6,9.75789474 10.7052632,11.6526316 Z" id="Shape"></path>
        </g>
    </g>
</svg>