<?xml version="1.0" encoding="UTF-8"?>
<svg width="28px" height="21px" viewBox="0 0 28 21" version="1.1" xmlns="http://www.w3.org/2000/svg" xmlns:xlink="http://www.w3.org/1999/xlink">
    <!-- Generator: Sketch 44.1 (41455) - http://www.bohemiancoding.com/sketch -->
    <title>twitter</title>
    <desc>Created with Sketch.</desc>
    <defs></defs>
    <g id="Page-1" stroke="none" stroke-width="1" fill="none" fill-rule="evenodd">
        <g id="twitter" fill-rule="nonzero" fill="#080808">
            <path d="M28,2.50526316 C26.9684211,2.94736842 25.7894737,3.24210526 24.7578947,3.38947368 C25.9368421,2.8 26.8210526,1.76842105 27.2631579,0.442105263 C26.0842105,1.03157895 24.9052632,1.47368421 23.5789474,1.62105263 C22.5473684,0.589473684 21.0736842,0 19.4526316,0 C16.2105263,0 13.7052632,2.35789474 13.7052632,5.15789474 C13.7052632,5.6 13.7052632,5.89473684 13.8526316,6.33684211 C9.13684211,6.18947368 4.86315789,3.97894737 2.06315789,0.884210526 C1.47368421,1.76842105 1.17894737,2.65263158 1.17894737,3.53684211 C1.17894737,5.30526316 2.21052632,6.92631579 3.68421053,7.81052632 C2.8,7.81052632 1.91578947,7.51578947 1.03157895,7.22105263 C1.03157895,7.22105263 1.03157895,7.22105263 1.03157895,7.22105263 C1.03157895,9.72631579 2.94736842,11.7894737 5.6,12.3789474 C5.15789474,12.5263158 4.56842105,12.5263158 4.12631579,12.5263158 C3.68421053,12.5263158 3.38947368,12.5263158 3.09473684,12.3789474 C3.83157895,14.4421053 5.89473684,15.9157895 8.4,16.0631579 C6.48421053,17.3894737 3.97894737,18.2736842 1.32631579,18.2736842 C0.884210526,18.2736842 0.442105263,18.2736842 0,18.2736842 C2.50526316,19.7473684 5.6,20.6315789 8.84210526,20.6315789 C19.4526316,20.6315789 25.2,12.6736842 25.2,5.74736842 C25.2,5.45263158 25.2,5.30526316 25.2,5.01052632 C26.2315789,4.42105263 27.2631579,3.53684211 28,2.50526316 Z" id="Shape"></path>
        </g>
    </g>
</svg>
